<mxfile host="65bd71144e">
    <diagram id="7S4q2v6MUpH0ECbipUOx" name="Page-1">
        <mxGraphModel dx="597" dy="410" grid="1" gridSize="2" guides="1" tooltips="1" connect="1" arrows="1" fold="1" page="1" pageScale="1" pageWidth="850" pageHeight="1100" math="0" shadow="0">
            <root>
                <mxCell id="0"/>
                <mxCell id="1" parent="0"/>
                <mxCell id="10" value="Produto" style="swimlane;fontStyle=0;childLayout=stackLayout;horizontal=1;startSize=26;fillColor=none;horizontalStack=0;resizeParent=1;resizeParentMax=0;resizeLast=0;collapsible=1;marginBottom=0;" parent="1" vertex="1">
                    <mxGeometry x="355" y="370" width="140" height="234" as="geometry"/>
                </mxCell>
                <mxCell id="11" value="_id: ObjectId" style="text;strokeColor=none;fillColor=none;align=left;verticalAlign=top;spacingLeft=4;spacingRight=4;overflow=hidden;rotatable=0;points=[[0,0.5],[1,0.5]];portConstraint=eastwest;" parent="10" vertex="1">
                    <mxGeometry y="26" width="140" height="26" as="geometry"/>
                </mxCell>
                <mxCell id="12" value="nome: String" style="text;strokeColor=none;fillColor=none;align=left;verticalAlign=top;spacingLeft=4;spacingRight=4;overflow=hidden;rotatable=0;points=[[0,0.5],[1,0.5]];portConstraint=eastwest;" parent="10" vertex="1">
                    <mxGeometry y="52" width="140" height="26" as="geometry"/>
                </mxCell>
                <mxCell id="13" value="marca: String" style="text;strokeColor=none;fillColor=none;align=left;verticalAlign=top;spacingLeft=4;spacingRight=4;overflow=hidden;rotatable=0;points=[[0,0.5],[1,0.5]];portConstraint=eastwest;" parent="10" vertex="1">
                    <mxGeometry y="78" width="140" height="26" as="geometry"/>
                </mxCell>
                <mxCell id="53" value="especificacao: String" style="text;strokeColor=none;fillColor=none;align=left;verticalAlign=top;spacingLeft=4;spacingRight=4;overflow=hidden;rotatable=0;points=[[0,0.5],[1,0.5]];portConstraint=eastwest;" parent="10" vertex="1">
                    <mxGeometry y="104" width="140" height="26" as="geometry"/>
                </mxCell>
                <mxCell id="54" value="unidade_medida: String" style="text;strokeColor=none;fillColor=none;align=left;verticalAlign=top;spacingLeft=4;spacingRight=4;overflow=hidden;rotatable=0;points=[[0,0.5],[1,0.5]];portConstraint=eastwest;" parent="10" vertex="1">
                    <mxGeometry y="130" width="140" height="26" as="geometry"/>
                </mxCell>
                <mxCell id="55" value="preco_unitario: Number" style="text;strokeColor=none;fillColor=none;align=left;verticalAlign=top;spacingLeft=4;spacingRight=4;overflow=hidden;rotatable=0;points=[[0,0.5],[1,0.5]];portConstraint=eastwest;" parent="10" vertex="1">
                    <mxGeometry y="156" width="140" height="26" as="geometry"/>
                </mxCell>
                <mxCell id="56" value="qtd_estoque: Number" style="text;strokeColor=none;fillColor=none;align=left;verticalAlign=top;spacingLeft=4;spacingRight=4;overflow=hidden;rotatable=0;points=[[0,0.5],[1,0.5]];portConstraint=eastwest;" parent="10" vertex="1">
                    <mxGeometry y="182" width="140" height="26" as="geometry"/>
                </mxCell>
                <mxCell id="63" value="categoria: Categoria" style="text;strokeColor=none;fillColor=none;align=left;verticalAlign=top;spacingLeft=4;spacingRight=4;overflow=hidden;rotatable=0;points=[[0,0.5],[1,0.5]];portConstraint=eastwest;" parent="10" vertex="1">
                    <mxGeometry y="208" width="140" height="26" as="geometry"/>
                </mxCell>
                <mxCell id="14" value="Fornecedor" style="swimlane;fontStyle=0;childLayout=stackLayout;horizontal=1;startSize=26;fillColor=none;horizontalStack=0;resizeParent=1;resizeParentMax=0;resizeLast=0;collapsible=1;marginBottom=0;" parent="1" vertex="1">
                    <mxGeometry x="660" y="140" width="140" height="364" as="geometry"/>
                </mxCell>
                <mxCell id="15" value="_id: ObjectId" style="text;strokeColor=none;fillColor=none;align=left;verticalAlign=top;spacingLeft=4;spacingRight=4;overflow=hidden;rotatable=0;points=[[0,0.5],[1,0.5]];portConstraint=eastwest;" parent="14" vertex="1">
                    <mxGeometry y="26" width="140" height="26" as="geometry"/>
                </mxCell>
                <mxCell id="16" value="razao_social: String" style="text;strokeColor=none;fillColor=none;align=left;verticalAlign=top;spacingLeft=4;spacingRight=4;overflow=hidden;rotatable=0;points=[[0,0.5],[1,0.5]];portConstraint=eastwest;" parent="14" vertex="1">
                    <mxGeometry y="52" width="140" height="26" as="geometry"/>
                </mxCell>
                <mxCell id="17" value="nome_fantasia: String" style="text;strokeColor=none;fillColor=none;align=left;verticalAlign=top;spacingLeft=4;spacingRight=4;overflow=hidden;rotatable=0;points=[[0,0.5],[1,0.5]];portConstraint=eastwest;" parent="14" vertex="1">
                    <mxGeometry y="78" width="140" height="26" as="geometry"/>
                </mxCell>
                <mxCell id="64" value="cnpj: String" style="text;strokeColor=none;fillColor=none;align=left;verticalAlign=top;spacingLeft=4;spacingRight=4;overflow=hidden;rotatable=0;points=[[0,0.5],[1,0.5]];portConstraint=eastwest;" parent="14" vertex="1">
                    <mxGeometry y="104" width="140" height="26" as="geometry"/>
                </mxCell>
                <mxCell id="65" value="email: String" style="text;strokeColor=none;fillColor=none;align=left;verticalAlign=top;spacingLeft=4;spacingRight=4;overflow=hidden;rotatable=0;points=[[0,0.5],[1,0.5]];portConstraint=eastwest;" parent="14" vertex="1">
                    <mxGeometry y="130" width="140" height="26" as="geometry"/>
                </mxCell>
                <mxCell id="66" value="logradouro: String" style="text;strokeColor=none;fillColor=none;align=left;verticalAlign=top;spacingLeft=4;spacingRight=4;overflow=hidden;rotatable=0;points=[[0,0.5],[1,0.5]];portConstraint=eastwest;" parent="14" vertex="1">
                    <mxGeometry y="156" width="140" height="26" as="geometry"/>
                </mxCell>
                <mxCell id="67" value="num_casa: String" style="text;strokeColor=none;fillColor=none;align=left;verticalAlign=top;spacingLeft=4;spacingRight=4;overflow=hidden;rotatable=0;points=[[0,0.5],[1,0.5]];portConstraint=eastwest;" parent="14" vertex="1">
                    <mxGeometry y="182" width="140" height="26" as="geometry"/>
                </mxCell>
                <mxCell id="68" value="complemento: String" style="text;strokeColor=none;fillColor=none;align=left;verticalAlign=top;spacingLeft=4;spacingRight=4;overflow=hidden;rotatable=0;points=[[0,0.5],[1,0.5]];portConstraint=eastwest;" parent="14" vertex="1">
                    <mxGeometry y="208" width="140" height="26" as="geometry"/>
                </mxCell>
                <mxCell id="69" value="bairro: String" style="text;strokeColor=none;fillColor=none;align=left;verticalAlign=top;spacingLeft=4;spacingRight=4;overflow=hidden;rotatable=0;points=[[0,0.5],[1,0.5]];portConstraint=eastwest;" parent="14" vertex="1">
                    <mxGeometry y="234" width="140" height="26" as="geometry"/>
                </mxCell>
                <mxCell id="70" value="municipio: String" style="text;strokeColor=none;fillColor=none;align=left;verticalAlign=top;spacingLeft=4;spacingRight=4;overflow=hidden;rotatable=0;points=[[0,0.5],[1,0.5]];portConstraint=eastwest;" parent="14" vertex="1">
                    <mxGeometry y="260" width="140" height="26" as="geometry"/>
                </mxCell>
                <mxCell id="73" value="celular: String" style="text;strokeColor=none;fillColor=none;align=left;verticalAlign=top;spacingLeft=4;spacingRight=4;overflow=hidden;rotatable=0;points=[[0,0.5],[1,0.5]];portConstraint=eastwest;" parent="14" vertex="1">
                    <mxGeometry y="286" width="140" height="26" as="geometry"/>
                </mxCell>
                <mxCell id="72" value="cep: String" style="text;strokeColor=none;fillColor=none;align=left;verticalAlign=top;spacingLeft=4;spacingRight=4;overflow=hidden;rotatable=0;points=[[0,0.5],[1,0.5]];portConstraint=eastwest;" parent="14" vertex="1">
                    <mxGeometry y="312" width="140" height="26" as="geometry"/>
                </mxCell>
                <mxCell id="71" value="uf: String" style="text;strokeColor=none;fillColor=none;align=left;verticalAlign=top;spacingLeft=4;spacingRight=4;overflow=hidden;rotatable=0;points=[[0,0.5],[1,0.5]];portConstraint=eastwest;" parent="14" vertex="1">
                    <mxGeometry y="338" width="140" height="26" as="geometry"/>
                </mxCell>
                <mxCell id="19" value="Categoria" style="swimlane;fontStyle=0;childLayout=stackLayout;horizontal=1;startSize=26;fillColor=none;horizontalStack=0;resizeParent=1;resizeParentMax=0;resizeLast=0;collapsible=1;marginBottom=0;" parent="1" vertex="1">
                    <mxGeometry x="355" y="140" width="140" height="78" as="geometry"/>
                </mxCell>
                <mxCell id="20" value="_id: ObjectId" style="text;strokeColor=none;fillColor=none;align=left;verticalAlign=top;spacingLeft=4;spacingRight=4;overflow=hidden;rotatable=0;points=[[0,0.5],[1,0.5]];portConstraint=eastwest;" parent="19" vertex="1">
                    <mxGeometry y="26" width="140" height="26" as="geometry"/>
                </mxCell>
                <mxCell id="21" value="descricao: String" style="text;strokeColor=none;fillColor=none;align=left;verticalAlign=top;spacingLeft=4;spacingRight=4;overflow=hidden;rotatable=0;points=[[0,0.5],[1,0.5]];portConstraint=eastwest;" parent="19" vertex="1">
                    <mxGeometry y="52" width="140" height="26" as="geometry"/>
                </mxCell>
                <mxCell id="23" value="Venda" style="swimlane;fontStyle=0;childLayout=stackLayout;horizontal=1;startSize=26;fillColor=none;horizontalStack=0;resizeParent=1;resizeParentMax=0;resizeLast=0;collapsible=1;marginBottom=0;" parent="1" vertex="1">
                    <mxGeometry x="270" y="720" width="140" height="156" as="geometry"/>
                </mxCell>
                <mxCell id="24" value="_id: ObjectId" style="text;strokeColor=none;fillColor=none;align=left;verticalAlign=top;spacingLeft=4;spacingRight=4;overflow=hidden;rotatable=0;points=[[0,0.5],[1,0.5]];portConstraint=eastwest;" parent="23" vertex="1">
                    <mxGeometry y="26" width="140" height="26" as="geometry"/>
                </mxCell>
                <mxCell id="25" value="num_venda: Number" style="text;strokeColor=none;fillColor=none;align=left;verticalAlign=top;spacingLeft=4;spacingRight=4;overflow=hidden;rotatable=0;points=[[0,0.5],[1,0.5]];portConstraint=eastwest;" parent="23" vertex="1">
                    <mxGeometry y="52" width="140" height="26" as="geometry"/>
                </mxCell>
                <mxCell id="26" value="data_hora: DateTime" style="text;strokeColor=none;fillColor=none;align=left;verticalAlign=top;spacingLeft=4;spacingRight=4;overflow=hidden;rotatable=0;points=[[0,0.5],[1,0.5]];portConstraint=eastwest;" parent="23" vertex="1">
                    <mxGeometry y="78" width="140" height="26" as="geometry"/>
                </mxCell>
                <mxCell id="60" value="itens: [ItemVenda]" style="text;strokeColor=none;fillColor=none;align=left;verticalAlign=top;spacingLeft=4;spacingRight=4;overflow=hidden;rotatable=0;points=[[0,0.5],[1,0.5]];portConstraint=eastwest;" parent="23" vertex="1">
                    <mxGeometry y="104" width="140" height="26" as="geometry"/>
                </mxCell>
                <mxCell id="61" value="cliente: Cliente" style="text;strokeColor=none;fillColor=none;align=left;verticalAlign=top;spacingLeft=4;spacingRight=4;overflow=hidden;rotatable=0;points=[[0,0.5],[1,0.5]];portConstraint=eastwest;" parent="23" vertex="1">
                    <mxGeometry y="130" width="140" height="26" as="geometry"/>
                </mxCell>
                <mxCell id="6" value="Cliente" style="swimlane;fontStyle=0;childLayout=stackLayout;horizontal=1;startSize=26;fillColor=none;horizontalStack=0;resizeParent=1;resizeParentMax=0;resizeLast=0;collapsible=1;marginBottom=0;shadow=1;strokeWidth=1;perimeterSpacing=0;" parent="1" vertex="1">
                    <mxGeometry x="50" y="208" width="140" height="364" as="geometry">
                        <mxRectangle x="50" y="200" width="80" height="30" as="alternateBounds"/>
                    </mxGeometry>
                </mxCell>
                <mxCell id="7" value="_id: ObjectId" style="text;strokeColor=none;fillColor=none;align=left;verticalAlign=top;spacingLeft=4;spacingRight=4;overflow=hidden;rotatable=0;points=[[0,0.5],[1,0.5]];portConstraint=eastwest;" parent="6" vertex="1">
                    <mxGeometry y="26" width="140" height="26" as="geometry"/>
                </mxCell>
                <mxCell id="8" value="nome: String" style="text;strokeColor=none;fillColor=none;align=left;verticalAlign=top;spacingLeft=4;spacingRight=4;overflow=hidden;rotatable=0;points=[[0,0.5],[1,0.5]];portConstraint=eastwest;" parent="6" vertex="1">
                    <mxGeometry y="52" width="140" height="26" as="geometry"/>
                </mxCell>
                <mxCell id="44" value="cpf: String" style="text;strokeColor=none;fillColor=none;align=left;verticalAlign=top;spacingLeft=4;spacingRight=4;overflow=hidden;rotatable=0;points=[[0,0.5],[1,0.5]];portConstraint=eastwest;" parent="6" vertex="1">
                    <mxGeometry y="78" width="140" height="26" as="geometry"/>
                </mxCell>
                <mxCell id="43" value="dataNascimento:DateTime" style="text;strokeColor=none;fillColor=none;align=left;verticalAlign=top;spacingLeft=4;spacingRight=4;overflow=hidden;rotatable=0;points=[[0,0.5],[1,0.5]];portConstraint=eastwest;" parent="6" vertex="1">
                    <mxGeometry y="104" width="140" height="26" as="geometry"/>
                </mxCell>
                <mxCell id="57" value="email: String" style="text;strokeColor=none;fillColor=none;align=left;verticalAlign=top;spacingLeft=4;spacingRight=4;overflow=hidden;rotatable=0;points=[[0,0.5],[1,0.5]];portConstraint=eastwest;" parent="6" vertex="1">
                    <mxGeometry y="130" width="140" height="26" as="geometry"/>
                </mxCell>
                <mxCell id="42" value="logradouro: String" style="text;strokeColor=none;fillColor=none;align=left;verticalAlign=top;spacingLeft=4;spacingRight=4;overflow=hidden;rotatable=0;points=[[0,0.5],[1,0.5]];portConstraint=eastwest;" parent="6" vertex="1">
                    <mxGeometry y="156" width="140" height="26" as="geometry"/>
                </mxCell>
                <mxCell id="46" value="num_casa: String" style="text;strokeColor=none;fillColor=none;align=left;verticalAlign=top;spacingLeft=4;spacingRight=4;overflow=hidden;rotatable=0;points=[[0,0.5],[1,0.5]];portConstraint=eastwest;" parent="6" vertex="1">
                    <mxGeometry y="182" width="140" height="26" as="geometry"/>
                </mxCell>
                <mxCell id="47" value="complemento: String" style="text;strokeColor=none;fillColor=none;align=left;verticalAlign=top;spacingLeft=4;spacingRight=4;overflow=hidden;rotatable=0;points=[[0,0.5],[1,0.5]];portConstraint=eastwest;" parent="6" vertex="1">
                    <mxGeometry y="208" width="140" height="26" as="geometry"/>
                </mxCell>
                <mxCell id="48" value="bairro: String" style="text;strokeColor=none;fillColor=none;align=left;verticalAlign=top;spacingLeft=4;spacingRight=4;overflow=hidden;rotatable=0;points=[[0,0.5],[1,0.5]];portConstraint=eastwest;" parent="6" vertex="1">
                    <mxGeometry y="234" width="140" height="26" as="geometry"/>
                </mxCell>
                <mxCell id="49" value="municipio: String" style="text;strokeColor=none;fillColor=none;align=left;verticalAlign=top;spacingLeft=4;spacingRight=4;overflow=hidden;rotatable=0;points=[[0,0.5],[1,0.5]];portConstraint=eastwest;" parent="6" vertex="1">
                    <mxGeometry y="260" width="140" height="26" as="geometry"/>
                </mxCell>
                <mxCell id="50" value="uf: String" style="text;strokeColor=none;fillColor=none;align=left;verticalAlign=top;spacingLeft=4;spacingRight=4;overflow=hidden;rotatable=0;points=[[0,0.5],[1,0.5]];portConstraint=eastwest;" parent="6" vertex="1">
                    <mxGeometry y="286" width="140" height="26" as="geometry"/>
                </mxCell>
                <mxCell id="51" value="cep: String" style="text;strokeColor=none;fillColor=none;align=left;verticalAlign=top;spacingLeft=4;spacingRight=4;overflow=hidden;rotatable=0;points=[[0,0.5],[1,0.5]];portConstraint=eastwest;" parent="6" vertex="1">
                    <mxGeometry y="312" width="140" height="26" as="geometry"/>
                </mxCell>
                <mxCell id="52" value="celular: String" style="text;strokeColor=none;fillColor=none;align=left;verticalAlign=top;spacingLeft=4;spacingRight=4;overflow=hidden;rotatable=0;points=[[0,0.5],[1,0.5]];portConstraint=eastwest;" parent="6" vertex="1">
                    <mxGeometry y="338" width="140" height="26" as="geometry"/>
                </mxCell>
                <mxCell id="74" value="" style="endArrow=diamondThin;endFill=1;endSize=24;html=1;entryX=0;entryY=0.5;entryDx=0;entryDy=0;exitX=0.457;exitY=1;exitDx=0;exitDy=0;exitPerimeter=0;" parent="1" source="52" target="26" edge="1">
                    <mxGeometry width="160" relative="1" as="geometry">
                        <mxPoint x="116" y="570" as="sourcePoint"/>
                        <mxPoint x="500" y="540" as="targetPoint"/>
                        <Array as="points">
                            <mxPoint x="116" y="810"/>
                        </Array>
                    </mxGeometry>
                </mxCell>
                <mxCell id="75" value="" style="endArrow=diamondThin;endFill=1;endSize=24;html=1;exitX=1;exitY=0.5;exitDx=0;exitDy=0;entryX=0.5;entryY=0;entryDx=0;entryDy=0;" parent="1" source="63" target="85" edge="1">
                    <mxGeometry width="160" relative="1" as="geometry">
                        <mxPoint x="340" y="540" as="sourcePoint"/>
                        <mxPoint x="500" y="540" as="targetPoint"/>
                        <Array as="points">
                            <mxPoint x="680" y="591"/>
                        </Array>
                    </mxGeometry>
                </mxCell>
                <mxCell id="76" value="" style="endArrow=diamondThin;endFill=1;endSize=24;html=1;entryX=1;entryY=0.5;entryDx=0;entryDy=0;" parent="1" target="11" edge="1">
                    <mxGeometry width="160" relative="1" as="geometry">
                        <mxPoint x="660" y="410" as="sourcePoint"/>
                        <mxPoint x="500" y="413" as="targetPoint"/>
                    </mxGeometry>
                </mxCell>
                <mxCell id="78" value="" style="endArrow=diamondThin;endFill=1;endSize=24;html=1;exitX=0.501;exitY=0.996;exitDx=0;exitDy=0;exitPerimeter=0;entryX=0.5;entryY=0;entryDx=0;entryDy=0;" parent="1" source="21" target="10" edge="1">
                    <mxGeometry width="160" relative="1" as="geometry">
                        <mxPoint x="257.02" y="182.98799999999994" as="sourcePoint"/>
                        <mxPoint x="500" y="540" as="targetPoint"/>
                    </mxGeometry>
                </mxCell>
                <mxCell id="79" value="1" style="text;html=1;align=center;verticalAlign=middle;resizable=0;points=[];autosize=1;strokeColor=none;fillColor=none;" parent="1" vertex="1">
                    <mxGeometry x="120" y="574" width="30" height="30" as="geometry"/>
                </mxCell>
                <mxCell id="80" value="0.*" style="text;html=1;align=center;verticalAlign=middle;resizable=0;points=[];autosize=1;strokeColor=none;fillColor=none;" parent="1" vertex="1">
                    <mxGeometry x="230" y="775" width="40" height="30" as="geometry"/>
                </mxCell>
                <mxCell id="81" value="1.*" style="text;html=1;align=center;verticalAlign=middle;resizable=0;points=[];autosize=1;strokeColor=none;fillColor=none;" parent="1" vertex="1">
                    <mxGeometry x="495" y="564" width="40" height="30" as="geometry"/>
                </mxCell>
                <mxCell id="82" value="0.*" style="text;html=1;align=center;verticalAlign=middle;resizable=0;points=[];autosize=1;strokeColor=none;fillColor=none;" parent="1" vertex="1">
                    <mxGeometry x="610" y="690" width="40" height="30" as="geometry"/>
                </mxCell>
                <mxCell id="83" value="1" style="text;html=1;align=center;verticalAlign=middle;resizable=0;points=[];autosize=1;strokeColor=none;fillColor=none;" parent="1" vertex="1">
                    <mxGeometry x="630" y="420" width="30" height="30" as="geometry"/>
                </mxCell>
                <mxCell id="84" value="0.*" style="text;html=1;align=center;verticalAlign=middle;resizable=0;points=[];autosize=1;strokeColor=none;fillColor=none;" parent="1" vertex="1">
                    <mxGeometry x="495" y="420" width="40" height="30" as="geometry"/>
                </mxCell>
                <mxCell id="85" value="ItemVenda" style="swimlane;fontStyle=0;childLayout=stackLayout;horizontal=1;startSize=26;fillColor=none;horizontalStack=0;resizeParent=1;resizeParentMax=0;resizeLast=0;collapsible=1;marginBottom=0;" vertex="1" parent="1">
                    <mxGeometry x="610" y="720" width="140" height="104" as="geometry"/>
                </mxCell>
                <mxCell id="86" value="num_item: Number" style="text;strokeColor=none;fillColor=none;align=left;verticalAlign=top;spacingLeft=4;spacingRight=4;overflow=hidden;rotatable=0;points=[[0,0.5],[1,0.5]];portConstraint=eastwest;" vertex="1" parent="85">
                    <mxGeometry y="26" width="140" height="26" as="geometry"/>
                </mxCell>
                <mxCell id="87" value="quantidade: Number" style="text;strokeColor=none;fillColor=none;align=left;verticalAlign=top;spacingLeft=4;spacingRight=4;overflow=hidden;rotatable=0;points=[[0,0.5],[1,0.5]];portConstraint=eastwest;" vertex="1" parent="85">
                    <mxGeometry y="52" width="140" height="26" as="geometry"/>
                </mxCell>
                <mxCell id="88" value="produto: Produto" style="text;strokeColor=none;fillColor=none;align=left;verticalAlign=top;spacingLeft=4;spacingRight=4;overflow=hidden;rotatable=0;points=[[0,0.5],[1,0.5]];portConstraint=eastwest;" vertex="1" parent="85">
                    <mxGeometry y="78" width="140" height="26" as="geometry"/>
                </mxCell>
                <mxCell id="92" value="" style="endArrow=diamondThin;endFill=1;endSize=24;html=1;exitX=1;exitY=0.5;exitDx=0;exitDy=0;entryX=0;entryY=0.5;entryDx=0;entryDy=0;" edge="1" parent="1" source="25" target="87">
                    <mxGeometry width="160" relative="1" as="geometry">
                        <mxPoint x="450" y="700" as="sourcePoint"/>
                        <mxPoint x="610" y="700" as="targetPoint"/>
                    </mxGeometry>
                </mxCell>
                <mxCell id="93" value="0.*" style="text;html=1;align=center;verticalAlign=middle;resizable=0;points=[];autosize=1;strokeColor=none;fillColor=none;" vertex="1" parent="1">
                    <mxGeometry x="560" y="757" width="40" height="30" as="geometry"/>
                </mxCell>
                <mxCell id="94" value="1" style="text;html=1;align=center;verticalAlign=middle;resizable=0;points=[];autosize=1;strokeColor=none;fillColor=none;" vertex="1" parent="1">
                    <mxGeometry x="420" y="757" width="30" height="30" as="geometry"/>
                </mxCell>
                <mxCell id="95" value="1" style="text;html=1;align=center;verticalAlign=middle;resizable=0;points=[];autosize=1;strokeColor=none;fillColor=none;" vertex="1" parent="1">
                    <mxGeometry x="430" y="244" width="30" height="30" as="geometry"/>
                </mxCell>
                <mxCell id="96" value="0.*" style="text;html=1;align=center;verticalAlign=middle;resizable=0;points=[];autosize=1;strokeColor=none;fillColor=none;" vertex="1" parent="1">
                    <mxGeometry x="430" y="340" width="40" height="30" as="geometry"/>
                </mxCell>
                <mxCell id="98" value="" style="shape=stencil(lZ3bshw3jkW/Rq8VyTv53DPzH46w3FK0x3LI7pnpv29yHFnn5N5ZizpvugBZmbyAwMYG+Cn97Y8vP/3++VM8/vjz+7d/fP7frz//+eVT+o9PMX797cvn71//nH/6lP7zU/rbL9++f/7792///O3nv/7++09Lcv3pv7/9z3rC//2ll8IjHEsrHv/661/iY7T//4f/+kv+16+/vZc/HqV/QD6OR7/Kp8cRUP4YKp9Avj9SUvkC8u3Rosp3lI/6/EDvXx/d3ofGpz5i/sh4lkcbIt8Hyseg8jSe+ZGTyDeWP6LIV3r/9Kj6PpXGM/n7F5rf+Xkmf6B8KCKf6X3Co6p8ovUT/PmJnj/3l85vjK/lw3gMna/A8kGff2SQ74+s73/Q8+f+0vGn/R7qY9jzYb6mfNTvRfnyKLq/UD6f2+kH3z+f0/OD8umR1X6i/Nx+V/scHgP2e5j/nT8mH+17K8gfj6bvn2g8j0esH7AnQz834faaq/n6tfkRQLw/6vXpBQ+LrmdRQVvbHvW6NCuawna+6ineHgnEqx5cHQ+WuU8OEe+wz4uanfGosAyy7to5zwWWcX6k6+PnukswlOlctE/5eJ7zL+SbvM/cZ/D+6VHaVb7gsk9qBacd6iwvu7bjeKZz6p/y41xML+R1VwVcPMlOoXieGy/k9VTP5wjcH1vnaDzlCz4/6laZiz+T23Aamaf8ONf3C3n1Ig8+Fs1LDecTXsiLF5AiupHhXI3v5NEsn07CUz6db/hCPsjz8+kn3sofjyHfWx8ZxmfKi1lu+D6HjefA9Tnlr+s/B7TMh3rZOZ5PeCV/Hc/M4znlr9+bM5r+Q73yXM5z+AflK64HO3VzR3vlzx9nnPdj31vmfoH9O+Wv9qEE3F9z/VzHv8TzF1+s50PeJ6Pbb+u/VHZLHknkO45PUK+tDAxLg3rBdc4IudmPcX2fym5/1KioJg7TNKqrBR0ls891+jL4Pv1qD2s/Z+TV+XIdzzrOE/nV+Xh9fpszjvL16he2eOIWr/yN63prCecrnyDAUz6fJ8Ir/+c6v63g++TTW3jKV/QHsnr9rZ0O3Qt3L8p4dpzf8qhXe9LZPhT133pAezV3qzi3fJ5We5+nh/PC1z6u50vPJ+7yQl7O617OGXwhL+dX5/O06/j3hnFOV/e88/4apzV+yj8jpVdhV1F5Or9WWHfdAOM4TczLuPE6oiNwIB7UhZ4KlRSixoIjnrHtKwVZpFNhkJM1rcR1VEfCCG+BCfJKmY+louHvYD9uhiFZvqGgYxya4j9TIdMvND3qx/MlXyFGqZsC/UK3YS2IUc7YKIcPKnT76E7H2fFI+SPf4A7RUmBcUE60pUARUNCQe/cL0UL6gj7XCipdYYP92kwjGG2wwdiEiUXjiKUAds/h96XA+H67Wu5R0S4tDGmYAmc0BIFcCrD4Zqgqwe5eYfgoEboS1L1bCuRORc2ybOZhhqvhQ/Mw49XDRwnmIT2hu/cKcGTNCFctX8VUzgxxs70S2dbUb9ZSgonLh8IUU4FgqxwUJ5oKdCjmZ7bknQI6tkkh0qlAkfIMjAVKGw1D9xkZ67C205m4V6gKsU+FRL9Qzdw/p/JeYTrLSRUQzuy2ltjfngoSYEyFSsNqQPhUIOs9A3Y1Mw0hymIx7VKgmMHXUjvD+nuFpJD1UoD9MIP8YWuJrEaxbNBgXKT4nu4YOJTpeVdVoMihDDt2++lM3Icyhw1rx9VawwmVvlMocIrWaFajYzRZkyallwIlG7LGV0uB4rds++F5rt4rFIsf+rm67hWqJpqXAoWg7YzY3il0WN4L4nAFGtZue7rjnq5DU0S7b7hbfA2+oR1myPppR14pFHslCmlaOIGy93uafsGw9WUq6ReiBRwNA7+p0Mx6E3rZkp1AFd2fqSD4zTpF6aPzjSdAgN5UUOvNCNFU6OY6kNVo5cYNJWpEM2rK8pdoHgz12ThYU0HIDsuFo29oN+4PZU1bP2HFH/Rbp4J+dOGZHmZmCprKftgGKueZ9EpBt2jBZGsPimZOhcAKGj9k3A892rBmtN5TQV2HjB5Z9+A1I9FmKghkPRUoBdCzAVLPR7xScLiInMSFMXZVoPih+6EYeR6qxXFMF+pPK/QOhYv0C80M2YHO+lQo11HqA1M9vSkmMBUoPO5dk+XzX/AXuqGh7CTOF1C4uJ2PeKUg+bDe8JUWumoKlFAdlnGbCmRb57yKXVpTCRtoKogLNxcLgWrDkvi9IvdvxBtUnbJWc7tIONALepXD8kQ9o3OybERUBUIdltmSpZEwszcVdHlHtHwL8JVXCkh5XICvjNKByZ91QF0V5iFG2at1BF4nrnWmcVVlIc+TG0epWkKN0Z9h4UDjjP5y2CwlSEDIcgnlFyI66wsnkV8IbASaLr7pjZPlewNWToUZIFB4vIAVUejIg1nAiig0BNUWTnL96Mou3Buw8lRg0t5UkChrhrMEUywFSUZHdOGGZftmSE7ZgRXxSDr9wEjxDfY4Fcrgxdd1Ay1CA320IVilYh5owR6ikJHStuJC4Vgk9PkW7HEdpRIxw7FCVfnogBH7UpBh3czDE/Y4FfLY/YJAwJkxgYUAXH2N3M5z9ZWCYGSZYewxFJvJGV24qSDhQE7oSi8FY2/hWhpqlxL7fEvhavlSxxhoKUgZRjsD5h9VqOxgDcXIElNqloJwBtOZDnupYKRB3HFT4ToPKZz/8lJByNwbM+MKfTusQi9vGIDfKJTTR/vBj45M7fCJe2Mv/eDyjoE9such+1Q4ztX1ck9fl/fKidMrdQ3L3uouXtrW68SFesZdL829MJgLxnHrUBSKdEaK1jCOTUiY8Vv+koxSwAzHArikFuLgE6ga1MJrr1jsyvJZGSccJk55GaKKadoZziiNEFMPw4pRCu+EZ+3emzzu/qi5wcJbM5oXw+5qUKd+E70Fff/Mjt6htiVj8nSG9ULqyJg2WchEV3lYnysiV/kNoKS0YWRZOsTFrNsezRfB5EG/mS+CoGdc6u9DcO9Q2k5GI7ei0vERecOqNvJVgaSt/GHvT1hyuRkfAquz0doRgJny0eTpfay4k0OEKW/fS1B4sww0o8gt+n6h/btSTzq/xMlqVtzJbL0ZrktaKGP+rx0a8GfOSA4fH8wvdo1LMwZctavrlPH8qk3Pl8xJ3mrhFq63WqysA9dzNf4Z75dqNO+MUcfKm3/o+dH3L+blg56nGb2+emgWhddnMVg6Yzgw5WX9F/Tgikf4TL5oaj8LBqJTPujziU5VqvJ+Cp6PpSjNviDrvxT1Bwraq5IVumJOaDF/byuvZTJoD0tU/2Tz/kHPX6YKl8PXA63nPBRM5/fPXf0fpsyuoqqP+MO5KROH6ayryOu6H5nYOeWFrcRQT67q31bM4+ai53U9DdgrecWTMcGfs78/EveScmsrJq5zVHtesQhhsSF1/Dfyh74P8ggtL86MiRwUWWDMKT+LyN7J0/sfCqZURP7SsDIurrIaSiyrCM0nY0EWPF+SNZ9gezLlD7U/FL8kq9gvOF/J8ikF8bVUrUySq+Kq5mALVhmmousho71anGmNdyg+Tfkm3qHxsWYwmavSk+LxGfkOi1Wu/g+u5+jxF0G0yc47poSkoPObmagflH6RmeNuZb8Jc5ZTXiFmPK+97CthvLmaM+n70PqPFl8kPI9i9+Y9VMcQuzebIf8hdo2/Ns17buRpfqMRPAPGs9HIY9wVY41nEHms4jUgOnCzq2GgL2Z/o+EtAZn80XgyAc9TL50J6O/FofFR3L1/0fndvY82S8OaraHxXUKSQvQEzm48g+6vyOtN2z5gXiJacnLTzKzreRQRr4hPkvi78ef1b/uRqlr9+Zynj135dAHx7TU+0rYF8e21H23/Uq3Z0Hgt8PhbPL6V72Z/6Dw9rI0P+1fWBiTgeZQsfgzIKEtGQeOE0Cpj0/HEKrao53vE8Zz+iTXPo/21mrrYeUTfm9Xfjtg1J1mVRcTzaPqHxZoFkr9R1R9LyCZNRpFK7B82JYgnZLZNebE/CfGZ1HW/JMRLF+lAvxfXj+33jPZqymf1Vym+nvJD8cNM1YCH56fI3q540/I7XJ7o+QKOf6u+D3bRsHic4xeP9zm/4HjCRt7wCsZjHQ9h/DwXH09an9nabnA8mC3e5Hxotv2bkdy08DHLR5B8N6oS2v/sbCs83x0/5HzQwidt/RB+bucXr2fHVxn/d/yW878l3eQ76H2y+ksZ7e3CtzWepS5xCz/X8aQuKQuf1/VG8VGx4oOM/IdizUoZT1j5C92PmL+wNiwZ8Zxi/hgzV1d+R+ML2i81aH6Q8YFVOKrvs6sbNTyB8mWWX0uIL3n+jv0Bzw8m9Jc8/5gQH/b8Jncr9fxpQvzW87MJ/QHP/3I86PllxnM8f72Rt/w4v7/n35l46vl9Hk/nDyTu6mT8hIT2x/kPCe2b8ysS4g/O3+D17PwQ3i/OP0nMtzF+C+93589s5I2fs5E3PCoxf8n4RRt54y8xXur8qI288a8S8oWc38X20/ljCf3/bpx/7qrr/De2n4tfZ/uXeONBe75w/DiC+jO8v4a1VUxYeT6i+g+Jyf7WzD5zF7fk/gkWzFkz8g0lPTu/AunfxfOJyDouih829IdH1f3ObSeG5dPHruJK4q9wYEOStwYnT4W4K6sRjzgkpuB2peiEzRwP5SiHzaQNLbsMm0rQoV532BZbiNsUuHvgVNAm8gGBr6mgQFlk5rQhIzHvPlqWUiy7eRAu0L6yQW862NZOCLtnX50hCvv6D80HbCtMVGFbwyKIROLWAuE4tCpyU4hzp9G4peGNRsdA+uYzBluyYczoY6sgoTq3uxx28Ufmm1F8S2T2FoaxQXLeLVilFxeuRB6GN7RdpZkSdDtGFMuWySiNXfGbHBHlwBzcMq/CSeOkrNdQlYgoglfLFb6zaDgtM+9Mk/A2StmVOSoRkvufDcvsl4Gh6bBUeuVc9Ohayl8jFxZbZ6/K7ASvoap59w3izlduxOLeQ+UePcMAhdq4Mr8rglg3Z7tRIutgq9HUkLXNfmh6ts8wHS1f0+K3xmmYVUIu3bELuxtN/dy2KY5u6pTNUBdbKnh3Ae7stWrZZJTGrn+BrKXO5I9V/GaNJyJ9g/V76kxXWI0nrAs3Nm0o9kqcQBhZA/TVAISGNSuDom92nHcMabsaO8E4e2OXKVozmc5RbtTF1ztvIIOBpwJ2bgmKC/VNHwnradg35v6wmWYz061OeNOxvHtz1oM7GRn4Mbh6tDfd04Mv5ZkKQhcYzFeaa1Mb/TKhqFfr/MiMw17sFzJCJlNBW6dyjdJU0Ea/BZ2TbiTUUbDjYLes1+Cyjp4+2LG8Gy9k03C5W6JvMDO/B2UyjM2FApZ6Xx1vaOIOa7PILQq7bdG3Bjav0FjtTd+Q/jCPQPEEBtvWqRCjKiBgbc1kNm14m++4hsu7GYQ12Nw365X05nK9UtBf6Mgyat51vXPaw3pWjY553ZbVq9x1EbX72pb7Tr+QrHEd+0vThxTkbnTMpbao3M4xeB6CdX4cvFp9i3IbrWblHivCppk2/vcbcHGr4P1i32EjrzS0Je3A9V29Xz47rrVbN0r+6mo9qMbgstRqPc4H11EWW65j1w9Z2xtzJ4mbBsp8AWC1Vndv2Mi9QrQLJ/jKpdVm2hQI/qnegXwwXWNYo9KBaE7p1s6VrwEs7mENxO+L95rni75KVsx1cOuWm6boHRs+3bRdZ0t209h9o+ATx6+UDbdb+A4XVvohR8doNpxi08g6W1+5wZBuruZsdL57od404yawcl10YDNN6b6cb+aBjHG2+qnlnRCBL95cdEAVddkuylseFn3DnZdIjmuyZqvL6WOSr+7pxlVdPnHco/DmahG+0uLm8pLGhXt+PcrmF/wCFs423VzxslHwS2Qa36fi19Q0ro7yi3C4w+zNVTubX/DLfHgebq4L4nm4uZCIh/XmyqPGNR9+qVLD9MDNtU2c3725GKpx2YpfPdWwTvzmcquGWMvN9VmbX/ALuhoGQWHcTBwmIsdNIEfzEPrd0gC7FLp9A98qEKwdxrokgO9u0xsqGN1c18kZikCQbrAOArur2LK5P4XTu0m5Arsr8eLNpXtUxR7s8tWRMC6bCnppRuLbYA9zTiJ33zNeS+TWeBYBbRpwal3KOPCWg269wQf3mb+5fhIvCdE57h3fvylg99ZF/j400XRl53u2rHFg58YA9aYrOCEsRXldnYmrRS1Fj9xI4+b6VXLCsq7PxkyTrHVfjS+ySdYau+F13cajbXwbil8PXLixgV4V2riwIyovvzFx0k7YFrBxo3XGbweuh6gOau3Y2CaoSazcXt3qsirzAQwqqFzYEayPTEQe3qFsmsqF8od974HzZX2yysAo51AAqXQkix2KhJeGaUnjJRe+tc9c8cIJjEP3b0m4Hw/ry8mUlUP7DpSALulhfVuOnfx1vjJfb3xYHSZfE2f8sFX5huOp8twIyuW5UM/luVDVxjNzYfRhdXfHbn6FBshUxkPtbaroJR56DUHiHKH1EUtcaGs3JKWEyIxdXj3jcZbXOiVe/14nw6QzQ2Ui46CW8J8eGhFg7LxYRG9qhKDnUeRm0cazXx4Cnqfi/6wTFt9HKBQxcFivCa91xTSe1+KfhIZofVQwJvC1rdH6VpTN92rfirx5vvbq5sI+q2MJEeWT9Vk4+H5hS9Zx3bW33cYyXsWSGSS1ZA+DTlVzbhVDnaquP9PMm3eYxWyyOiYZ7Ug3u4wZzLt2LUTqUSseMOFk3PKDfU5zwg58+Rm1y0QdDM8EDRr5sp25JZq+D8pb8/UD0dBgxT2cqQ1Zg5aNfNGgd/M+dvfu5nurHoqb51tx9ka+q9HffK/Rqrfytj7xTDGCzcHNiiwoOnYgq603PHPt0D2wOM8PiQOxw2jF3wdu97feLG/yZAkXMK7zSyn11VugqTydoUW51AdiDisVoO9DPnm0204PzMpGu3oxcC6j6X7cNIdrVnnGzca8tG3b7EqbRWEOwBD6gJTRZE4815CloEHsXt6eT/mwoNf1BG4mas0gA2KYS17fBzEuu9AxcHPQoJUvkfN/N/K0Hvx9uNmef29E++Djydfv+XxFbkZr6yGiK+brLbIPvJWff/j9pz+//PWXX77++usff37/9o/P7///l2/fP//9+7d//vbz85/++PLT75/n3/4N);lineShape=1;" vertex="1" parent="1">
                    <mxGeometry x="218.09773075298517" y="681.4047361416892" width="575.8407323271308" height="239.8585182304158" as="geometry"/>
                </mxCell>
            </root>
        </mxGraphModel>
    </diagram>
</mxfile>